<?xml version="1.0" encoding="utf-8"?>
<!-- Generator: Adobe Illustrator 22.0.1, SVG Export Plug-In . SVG Version: 6.00 Build 0)  -->
<svg version="1.1" id="Layer_1" xmlns="http://www.w3.org/2000/svg" xmlns:xlink="http://www.w3.org/1999/xlink" x="0px" y="0px"
	 viewBox="0 0 1000 1000" style="enable-background:new 0 0 1000 1000;" xml:space="preserve">
<style type="text/css">
	.st0{fill:#01652E;}
	.st1{fill:#D12229;}
</style>
<g>
	<g>
		<g>
			<path class="st0" d="M220.8,447.5c25.1,0,46.3,19.8,46.3,45.7c0,25-20.8,45.2-46.3,45.2s-46.3-20.2-46.3-45.2
				C174.5,467.4,195.7,447.5,220.8,447.5z M220.8,523.4c16.9,0,29.9-14.1,29.9-30.2c0-16.8-13.3-30.5-29.9-30.5
				s-29.9,13.7-29.9,30.5C190.9,509.3,203.9,523.4,220.8,523.4z"/>
			<path class="st0" d="M279.4,449.3H298l36.6,63.6h0.2v-63.6h16.4v87.4h-18.3l-37-63.6h-0.2v63.6h-16.4V449.3z"/>
			<path class="st0" d="M366.8,449.3h47.6v15.1h-31.2v21.4h29.9v15.1h-29.9v20.7h31.2v15.1h-47.6V449.3z"/>
			<path class="st0" d="M472.2,464.4h-16.4v-15.1h49.3v15.1h-16.5v72.3h-16.4V464.4z"/>
			<path class="st0" d="M506.2,449.3h16.7l15.3,61.1h0.2l15.2-61.1h12l14.8,61.1h0.2l15.4-61.1h16.7l-25.7,87.4h-13l-14.4-57.8h-0.2
				l-14.6,57.8H532L506.2,449.3z"/>
			<path class="st0" d="M663.2,447.5c25.1,0,46.3,19.8,46.3,45.7c0,25-20.8,45.2-46.3,45.2c-25.5,0-46.3-20.2-46.3-45.2
				C616.9,467.4,638.1,447.5,663.2,447.5z M663.2,523.4c16.9,0,29.9-14.1,29.9-30.2c0-16.8-13.3-30.5-29.9-30.5
				s-29.9,13.7-29.9,30.5C633.3,509.3,646.3,523.4,663.2,523.4z"/>
			<path class="st0" d="M797.1,447.5c25.1,0,46.3,19.8,46.3,45.7c0,25-20.8,45.2-46.3,45.2c-25.5,0-46.3-20.2-46.3-45.2
				C750.9,467.4,772,447.5,797.1,447.5z M797.1,523.4c16.9,0,29.9-14.1,29.9-30.2c0-16.8-13.3-30.5-29.9-30.5s-29.9,13.7-29.9,30.5
				C767.2,509.3,780.3,523.4,797.1,523.4z"/>
			<path class="st0" d="M855.7,449.3h18.7l36.6,63.6h0.2v-63.6h16.4v87.4h-18.3l-37-63.6h-0.2v63.6h-16.4V449.3z"/>
			<path class="st0" d="M943.1,449.3h47.6v15.1h-31.2v21.4h29.9v15.1h-29.9v20.7h31.2v15.1h-47.6V449.3z"/>
		</g>
	</g>
	<g>
		<g>
			<path class="st1" d="M34.2,527.3h-7.4v-10.1h18v59.1H34.2V527.3z"/>
			<path class="st1" d="M64.1,566.3l21.1-19.6c5.8-5.4,6.5-8.9,6.5-11.7c0-6.2-4.6-8.9-8.6-8.9c-4.2,0-6.7,2.6-7.9,4.8
				c-1,2-1.1,4.3-1.1,6.6H63.6c-0.1-0.8-0.1-1.3-0.1-1.9c0-9.3,7.1-19.6,19.4-19.6c12.1,0,19.5,9.7,19.5,19.4
				c0,6.1-2.3,12.1-11.4,20.1l-12,10.7h23.4v10.1H64.1V566.3z"/>
			<path class="st1" d="M123.7,527.3h-7.4v-10.1h18v59.1h-10.6V527.3z"/>
		</g>
		<polygon class="st1" points="82.1,423.6 9.3,489.5 82.2,455.4 		"/>
		<polygon class="st0" points="82.2,455.8 82,489 156.6,488.8 		"/>
	</g>
</g>
</svg>
